<?xml version="1.0" standalone="no"?><!DOCTYPE svg PUBLIC "-//W3C//DTD SVG 1.1//EN" "http://www.w3.org/Graphics/SVG/1.1/DTD/svg11.dtd"><svg t="1665409424418" class="icon" viewBox="0 0 1359 1024" version="1.1" xmlns="http://www.w3.org/2000/svg" p-id="2564" xmlns:xlink="http://www.w3.org/1999/xlink" width="265.4296875" height="200"><path d="M1019.09693627 704.38456889h-75.17221926a187.9366163 187.9366163 0 0 0-24.63668148-60.06253037l52.98706963-52.98706963c5.20647111-5.20647111 5.20647111-13.73828741 0-18.94475852l-38.89682963-38.89682962c-5.20647111-5.20647111-13.73828741-5.20647111-18.94475852 0l-52.65938962 52.65938962c-18.21658075-11.7843437-38.59342222-20.51034075-60.40234667-25.46194962v-74.00713483c0-7.36673185-6.03173925-13.39847111-13.39847111-13.3984711h-55.00169482c-7.36673185 0-13.39847111 6.03173925-13.39847112 13.3984711v73.48527408a188.22667378 188.22667378 0 0 0-61.33684148 25.04931555l-51.71275852-51.71275852c-5.20647111-5.20647111-13.73828741-5.20647111-18.94475851 0l-38.89682963 38.89682964c-5.20647111 5.20647111-5.20647111 13.73828741 0 18.94475851l51.50644148 51.50644149a187.97545245 187.97545245 0 0 0-25.57117629 61.54315851h-72.7570963c-7.36673185 0-13.39847111 6.03173925-13.39847111 13.39847112v55.00169481c0 7.36673185 6.03173925 13.39847111 13.39847111 13.39847111h72.87845925c4.9273363 22.16087703 13.72615111 42.84112592 25.66826667 61.32470519l-51.72489481 51.72489481c-5.20647111 5.20647111-5.20647111 13.73828741 0 18.94475853l38.89682963 38.89682962c5.20647111 5.20647111 13.73828741 5.20647111 18.94475851 0l52.05257482-52.05257482c18.42289778 11.61443555 39.0060563 20.14625185 60.9848889 24.84299853v74.0435437c0 7.36673185 6.03173925 13.39847111 13.3984711 13.39847111h55.00169482c7.36673185 0 13.39847111-6.03173925 13.39847111-13.39847111v-74.56540445a187.76306725 187.76306725 0 0 0 60.06253037-25.25563258l52.98706963 52.98706962c5.20647111 5.20647111 13.73828741 5.20647111 18.94475852 0l38.89682962-38.89682962c5.20647111-5.20647111 5.20647111-13.73828741 0-18.94475853l-53.20552295-53.20552297a187.83709867 187.83709867 0 0 0 24.73377185-59.85621333h75.29358221c7.36673185 0 13.39847111-6.03173925 13.39847112-13.3984711v-55.00169482c0.02427259-7.36673185-6.00746667-13.39847111-13.37419852-13.39847111zM759.27096886 850.03226075c-57.99936 0-105.02750815-47.01601185-105.02750814-105.02750816 0-57.99936 47.01601185-105.02750815 105.02750814-105.02750814 57.99936 0 105.02750815 47.01601185 105.02750815 105.02750814 0 57.99936-47.01601185 105.02750815-105.02750815 105.02750816zM967.02008886 459.94742518h-64.07964444l-0.10922667 9.04154074a311.54115318 311.54115318 0 0 1 63.53351111 43.54503111l0.65536-52.58657185zM1066.40421923 524.68242963h-87.09006222a310.99987437 310.99987437 0 0 1 50.21999408 65.05054815h36.87006814c16.79663408 0 30.41355852-13.61692445 30.41355852-30.41355853v-4.2234311c0-16.79663408-13.61692445-30.41355852-30.41355852-30.41355852zM1196.18977182 8.48933925H672.95762961c-16.79663408 0-30.41355852 13.61692445-30.41355852 30.41355853v360.4601363c0 16.79663408 13.61692445 30.41355852 30.41355852 30.41355851h523.22000592c16.80877037 0 30.41355852-13.61692445 30.41355852-30.41355851V38.90289778c0.0121363-16.79663408-13.60478815-30.41355852-30.40142223-30.41355853z m-34.47921777 356.40661334h-454.26157038V73.60056889h454.26157038v291.2953837z" fill="#5473E8" p-id="2565"></path><path d="M745.67831701 105.57970963h383.78609778v232.39793778H745.67831701z" fill="#5473E8" p-id="2566"></path><path d="M139.21545479 198.88355555a232.94407111 77.57520592 0 1 0 465.88814222 0 232.94407111 77.57520592 0 1 0-465.88814222 0Z" fill="#5473E8" p-id="2567"></path><path d="M139.21545479 348.57263408c0 42.84112592 104.28719408 77.57520592 232.9440711 77.57520592s232.94407111-34.73408 232.94407112-77.57520592c0-0.49758815-0.02427259-0.9951763-0.06068148-1.48062816h0.06068148v-112.47919407c0 42.84112592-104.29933037 77.57520592-232.94407112 77.57520593S139.21545479 277.44180148 139.21545479 234.60067555c0-0.09709037 0-0.20631703 0.0121363-0.3034074h-1.08013037v112.79473777h1.12867555c-0.02427259 0.48545185-0.06068148 0.98304-0.06068148 1.48062816z" fill="#5473E8" p-id="2568"></path><path d="M139.21545479 505.85903408c0 42.84112592 104.29933037 77.57520592 232.9440711 77.57520592 48.92141037 0 94.33543111-5.02442667 131.81231408-13.61692445a312.24263111 312.24263111 0 0 1 101.13175704-93.7043437v-84.2258963c0 42.84112592-104.29933037 77.57520592-232.94407112 77.57520593S139.21545479 434.72820148 139.21545479 391.88707555c0-0.09709037 0-0.20631703 0.0121363-0.3034074h-1.08013037v112.79473777h1.12867555c-0.02427259 0.48545185-0.06068148 0.98304-0.06068148 1.48062816z" fill="#5473E8" p-id="2569"></path><path d="M139.21545479 549.17347555c0-0.09709037 0-0.20631703 0.0121363-0.3034074h-1.08013037v112.79473777h1.12867555c-0.02427259 0.48545185-0.06068148 0.98304-0.06068148 1.48062816 0 42.84112592 104.29933037 77.57520592 232.9440711 77.57520592 27.24598518 0 53.3997037-1.55344592 77.6965689-4.42974815 1.18935703-41.85808592 10.65566815-81.64086518 26.82121482-117.77061926-31.43300741 5.26715259-66.93167408 8.22840889-104.51778372 8.22840889-128.64474075 0-232.94407111-34.73408-232.9440711-77.57520593z" fill="#5473E8" p-id="2570"></path></svg>